<svg xmlns="http://www.w3.org/2000/svg" width="20" height="21" viewBox="0 0 20 21" fill="none">
    <path fill-rule="evenodd" clip-rule="evenodd" d="M10.5 5C10.7084 5 10.9082 5.08278 11.0556 5.23013C11.2029 5.37748 11.2857 5.57733 11.2857 5.78571V9.71429H15.2143C15.4227 9.71429 15.6225 9.79707 15.7699 9.94442C15.9172 10.0918 16 10.2916 16 10.5C16 10.7084 15.9172 10.9082 15.7699 11.0556C15.6225 11.2029 15.4227 11.2857 15.2143 11.2857H11.2857V15.2143C11.2857 15.4227 11.2029 15.6225 11.0556 15.7699C10.9082 15.9172 10.7084 16 10.5 16C10.2916 16 10.0918 15.9172 9.94442 15.7699C9.79707 15.6225 9.71429 15.4227 9.71429 15.2143V11.2857H5.78571C5.57733 11.2857 5.37748 11.2029 5.23013 11.0556C5.08278 10.9082 5 10.7084 5 10.5C5 10.2916 5.08278 10.0918 5.23013 9.94442C5.37748 9.79707 5.57733 9.71429 5.78571 9.71429H9.71429V5.78571C9.71429 5.57733 9.79707 5.37748 9.94442 5.23013C10.0918 5.08278 10.2916 5 10.5 5Z" fill="#4D8BFF"/>
  </svg>