<svg xmlns="http://www.w3.org/2000/svg" width="91" height="92" viewBox="0 0 91 92" fill="none">
  <path fill-rule="evenodd" clip-rule="evenodd" d="M36.8573 19.2576C32.9036 19.2576 29.6985 22.4294 29.6985 26.342C29.6985 30.2547 32.9036 33.4265 36.8573 33.4265C40.811 33.4265 44.016 30.2547 44.016 26.342C44.016 22.4294 40.811 19.2576 36.8573 19.2576ZM26.835 26.342C26.835 20.8644 31.3221 16.4238 36.8573 16.4238C42.3924 16.4238 46.8795 20.8644 46.8795 26.342C46.8795 31.8197 42.3924 36.2602 36.8573 36.2602C31.3221 36.2602 26.835 31.8197 26.835 26.342ZM58.6219 38.852C58.0995 38.0479 56.939 37.9759 56.3193 38.7092L41.6372 56.0814C41.3815 56.3839 41.01 56.5673 40.612 56.5874C40.214 56.6076 39.8255 56.4626 39.54 56.1874L29.7367 46.7391C29.0949 46.1206 28.0434 46.2306 27.5465 46.9682L15.245 65.2289C14.6107 66.1705 15.2927 67.4317 16.4363 67.4317H74.5648C75.6976 67.4317 76.3817 66.1916 75.7692 65.2486L58.6219 38.852ZM54.1228 36.8911C55.9819 34.6914 59.4636 34.9073 61.0306 37.3196L78.1779 63.7163C80.0155 66.5451 77.9631 70.2655 74.5648 70.2655H16.4363C13.0057 70.2655 10.9594 66.4818 12.8624 63.657L25.1639 45.3963C26.6546 43.1835 29.8093 42.8535 31.7345 44.709L40.4315 53.091L54.1228 36.8911Z" fill="#BDC2C9"/>
</svg>