<svg xmlns="http://www.w3.org/2000/svg" width="18" height="18" viewBox="0 0 18 18" fill="none">
  <g clip-path="url(#clip0_3333_1315)">
    <path d="M5.25 8.24994V5.24994C5.25 4.25538 5.64509 3.30155 6.34835 2.59829C7.05161 1.89503 8.00544 1.49994 9 1.49994C9.99456 1.49994 10.9484 1.89503 11.6517 2.59829C12.3549 3.30155 12.75 4.25538 12.75 5.24994V8.24994M3.75 8.24994H14.25C15.0784 8.24994 15.75 8.92151 15.75 9.74994V14.9999C15.75 15.8284 15.0784 16.4999 14.25 16.4999H3.75C2.92157 16.4999 2.25 15.8284 2.25 14.9999V9.74994C2.25 8.92151 2.92157 8.24994 3.75 8.24994Z" stroke="#6A7A8A" stroke-width="1.5" stroke-linecap="round" stroke-linejoin="round"/>
  </g>
  <defs>
    <clipPath id="clip0_3333_1315">
      <rect width="18" height="18" fill="white"/>
    </clipPath>
  </defs>
</svg>