<svg width="18" height="19" viewBox="0 0 18 19" fill="none" xmlns="http://www.w3.org/2000/svg">
<path d="M13.5005 5.87C13.4555 5.8625 13.403 5.8625 13.358 5.87C12.323 5.8325 11.498 4.985 11.498 3.935C11.498 2.8625 12.3605 2 13.433 2C14.5055 2 15.368 2.87 15.368 3.935C15.3605 4.985 14.5355 5.8325 13.5005 5.87Z" stroke="#6A7A8A" stroke-width="1.5" stroke-linecap="round" stroke-linejoin="round"/>
<path d="M12.7276 11.3301C13.7551 11.5026 14.8876 11.3226 15.6826 10.7901C16.7401 10.0851 16.7401 8.93012 15.6826 8.22512C14.8801 7.69262 13.7326 7.51262 12.7051 7.69262" stroke="#6A7A8A" stroke-width="1.5" stroke-linecap="round" stroke-linejoin="round"/>
<path d="M4.47688 5.87C4.52188 5.8625 4.57438 5.8625 4.61938 5.87C5.65438 5.8325 6.47937 4.985 6.47937 3.935C6.47937 2.8625 5.61688 2 4.54438 2C3.47188 2 2.60938 2.87 2.60938 3.935C2.61687 4.985 3.44188 5.8325 4.47688 5.87Z" stroke="#6A7A8A" stroke-width="1.5" stroke-linecap="round" stroke-linejoin="round"/>
<path d="M5.25008 11.3301C4.22258 11.5026 3.09008 11.3226 2.29508 10.7901C1.23758 10.0851 1.23758 8.93012 2.29508 8.22512C3.09758 7.69262 4.24508 7.51262 5.27258 7.69262" stroke="#6A7A8A" stroke-width="1.5" stroke-linecap="round" stroke-linejoin="round"/>
<path d="M8.99859 11.4716C8.95359 11.4641 8.90109 11.4641 8.85609 11.4716C7.82109 11.4341 6.99609 10.5866 6.99609 9.53656C6.99609 8.46406 7.85859 7.60156 8.93109 7.60156C10.0036 7.60156 10.8661 8.47156 10.8661 9.53656C10.8586 10.5866 10.0336 11.4416 8.99859 11.4716Z" stroke="#6A7A8A" stroke-width="1.5" stroke-linecap="round" stroke-linejoin="round"/>
<path d="M6.81656 13.8345C5.75906 14.5395 5.75906 15.6945 6.81656 16.3995C8.01656 17.202 9.98156 17.202 11.1816 16.3995C12.2391 15.6945 12.2391 14.5395 11.1816 13.8345C9.98906 13.0395 8.01656 13.0395 6.81656 13.8345Z" stroke="#6A7A8A" stroke-width="1.5" stroke-linecap="round" stroke-linejoin="round"/>
</svg>
